# xmcd
#
# Track frame offsets:
#	150
#	18107
#	36751
#	52229
#	71866
#	85292
#	98763
#	121513
#	138113
#	147958
#	160184
#	179238
#	189790
#
# Disc length: 2749 seconds
#
# Revision: 1
# Processed by: cddbd v1.5.2PL0 Copyright (c) Steve Scherf et al.
# Submitted via: audiograbber 1.83.01
#
DISCID=ad0abb0d
DTITLE=Dropkick Murphys - Going Out In Style
DYEAR=2011
DGENRE=Hardcore
TTITLE0=Hang 'em High
TTITLE1=Going Out In Style
TTITLE2=The Hardest Mile
TTITLE3=Cruel
TTITLE4=Memorial Day
TTITLE5=Climbing A Chair To Bed
TTITLE6=Broken Hymns
TTITLE7=Deeds Not Words
TTITLE8=Take 'Em Down
TTITLE9=Sunday Hardcore Matinee
TTITLE10=1953 
TTITLE11=Peg O' My Heart
TTITLE12=The Irish Rover
EXTD=
EXTT0=
EXTT1=
EXTT2=
EXTT3=
EXTT4=
EXTT5=
EXTT6=
EXTT7=
EXTT8=
EXTT9=
EXTT10=
EXTT11=
EXTT12=
PLAYORDER=
